<?xml version="1.0" encoding="utf-8"?>
<!-- Generator: Adobe Illustrator 26.1.0, SVG Export Plug-In . SVG Version: 6.00 Build 0)  -->
<svg version="1.1" id="Layer_1" xmlns="http://www.w3.org/2000/svg" xmlns:xlink="http://www.w3.org/1999/xlink" x="0px" y="0px"
	 viewBox="0 0 361 195" style="enable-background:new 0 0 361 195;" xml:space="preserve">
<style type="text/css">
	.st0{opacity:0.2;fill:#969696;}
</style>
<path class="st0" d="M259.7,156.6v-18.2c0-15.1,9.8-27.2,10.1-40.7c0.4-14.5,8.5-25.4,21.5-38.4c15-14.9,28-25.1,37.6-34.2
	c7.7-7.3,22.6-32.5,30.4-22.7c7.8,9.8-14.3,20.1-25,28.1c-13.4,10-39,30.5-34.9,44.8c3.6,12.6,14-7.2,19.4,0.2
	c5.4,7.3-21,20.8-21,50.7v69H87.9c-18.9,0-24.2-4.6-33.3-13c-14.9-13.8-30.2,11.2-47-1.3c-16.3-12.1-4.3-32.1,18.4-54.7
	c23-23,56.8-55.2,67.2-69.1c12.9-17.2,22.5-33.2,31.4-25.4c8.1,7.2-15,24.8-26.8,33.9c-11.7,9.1-57.1,53.4-63,66.1
	c-5.5,11.8,10.8,21.2,26.5,7.5c15.7-13.7,23.6-34.8,33.3-30c11.7,5.9-17.6,22.2-21.6,31.3c-3.9,9.1,3.9,16.3,19.6,16.3L259.7,156.6
	L259.7,156.6z"/>
</svg>
