<?xml version="1.0" encoding="utf-8"?>
<!-- Generator: Adobe Illustrator 26.1.0, SVG Export Plug-In . SVG Version: 6.00 Build 0)  -->
<svg version="1.1" id="Layer_1" xmlns="http://www.w3.org/2000/svg" xmlns:xlink="http://www.w3.org/1999/xlink" x="0px" y="0px"
	 viewBox="0 0 50 50" style="enable-background:new 0 0 50 50;" xml:space="preserve">
<style type="text/css">
	.st0{fill:url(#SVGID_1_);}
	.st1{fill:#01E786;}
</style>
<g>
	<linearGradient id="SVGID_1_" gradientUnits="userSpaceOnUse" x1="13.6344" y1="45.6651" x2="22.8447" y2="28.2455">
		<stop  offset="0" style="stop-color:#ED515C"/>
		<stop  offset="1" style="stop-color:#FDD100"/>
	</linearGradient>
	<path class="st0" d="M25,12.7c-6.2,0-11.2,4.8-11.4,10.9h0l0,21.2l0,2.9c0,0,0.7,0,3.1,0c3.1,0,3.3-2.9,3.3-2.9l0-9v-1.4v-10h0
		c0,0,0,0,0-0.1v-0.5c0.1-2.7,2.4-4.8,5.1-4.8h0c2.8,0,5.1,2.3,5.1,5.1v0c0,2.8-2.3,5.1-5.1,5.1h0c-1.5,0-2.8-0.6-3.7-1.6V35
		c1.9,0.6,4,0.8,6.1,0.4c5.3-1.1,9-5.9,9-11.3v0c0-6.3-5.1-11.3-11.3-11.3H25z"/>
	<path class="st1" d="M25,2.2C12.4,2.2,2.3,12.4,2.3,24.9v0c0,7.5,3.6,14.1,9.2,18.3l0-10.3c-1.4-2.3-2.2-5.1-2.2-8
		c0-8.7,7-15.7,15.7-15.7s15.7,7,15.7,15.7c0,8.7-7,15.7-15.7,15.7c-1,0-2.1-0.1-3-0.3l0,7.1c1,0.1,2,0.2,3,0.2h0
		c12.6,0,22.7-10.2,22.7-22.7V2.2H25z"/>
</g>
</svg>
